<?xml version="1.0" standalone="no"?>
<!DOCTYPE svg PUBLIC "-//W3C//DTD SVG 20010904//EN"
 "http://www.w3.org/TR/2001/REC-SVG-20010904/DTD/svg10.dtd">
<svg version="1.0" xmlns="http://www.w3.org/2000/svg"
 width="260.000000pt" height="260.000000pt" viewBox="0 0 260.000000 260.000000"
 preserveAspectRatio="xMidYMid meet">
<metadata>
Created by potrace 1.11, written by Peter Selinger 2001-2013
</metadata>
<g transform="translate(0.000000,260.000000) scale(0.100000,-0.100000)"
fill="#000000" stroke="none">
<path d="M0 1300 l0 -1300 1300 0 1300 0 0 1300 0 1300 -1300 0 -1300 0 0
-1300z m1466 939 c316 -56 563 -242 695 -523 36 -76 69 -189 69 -233 0 -17 5
-35 10 -38 16 -10 12 -313 -5 -345 -7 -14 -18 -50 -25 -80 -7 -30 -17 -62 -21
-70 -4 -8 -19 -42 -34 -75 -84 -188 -249 -349 -449 -440 -141 -64 -222 -80
-411 -80 -201 0 -293 19 -439 91 -287 142 -464 385 -512 703 -18 118 -17 192
1 306 33 211 106 362 247 511 140 147 280 219 543 277 41 9 273 7 331 -4z"/>
<path d="M1155 1890 c-208 -44 -368 -207 -420 -427 -14 -58 -17 -99 -12 -195
6 -134 19 -186 69 -280 64 -120 158 -202 293 -254 64 -25 82 -28 205 -28 103
0 146 4 182 16 176 64 283 165 349 331 48 119 54 333 13 462 -49 151 -163 283
-294 338 -19 8 -48 20 -65 27 -36 15 -263 23 -320 10z"/>
</g>
</svg>
