<?xml version="1.0" standalone="no"?>
<!DOCTYPE svg PUBLIC "-//W3C//DTD SVG 20010904//EN"
 "http://www.w3.org/TR/2001/REC-SVG-20010904/DTD/svg10.dtd">
<svg version="1.0" xmlns="http://www.w3.org/2000/svg"
 width="260.000000pt" height="260.000000pt" viewBox="0 0 260.000000 260.000000"
 preserveAspectRatio="xMidYMid meet">
<metadata>
Created by potrace 1.11, written by Peter Selinger 2001-2013
</metadata>
<g transform="translate(0.000000,260.000000) scale(0.100000,-0.100000)"
fill="#000000" stroke="none">
<path d="M0 1300 l0 -1300 1300 0 1300 0 0 1300 0 1300 -1300 0 -1300 0 0
-1300z m1400 950 c110 -9 175 -22 212 -41 10 -5 23 -9 29 -9 19 0 141 -61 209
-105 152 -99 304 -300 354 -470 10 -33 23 -73 28 -90 15 -42 23 -422 10 -438
-6 -6 -13 -30 -17 -52 -4 -22 -11 -44 -15 -50 -4 -5 -10 -23 -14 -39 -33 -138
-196 -349 -351 -453 -62 -41 -184 -103 -204 -103 -6 0 -19 -4 -29 -9 -92 -48
-455 -60 -581 -19 -186 59 -293 117 -405 218 -46 42 -135 151 -162 200 -10 19
-21 37 -25 40 -17 16 -75 172 -91 245 -17 79 -17 371 0 450 25 116 64 208 138
320 148 227 409 382 680 404 54 5 104 9 109 10 6 0 62 -4 125 -9z"/>
<path d="M1161 1884 c-80 -18 -176 -63 -233 -110 -241 -201 -274 -622 -70
-877 38 -47 161 -133 222 -156 76 -28 199 -38 303 -25 214 27 360 149 443 369
23 62 26 86 28 205 1 156 -8 198 -72 325 -38 76 -100 144 -172 190 -79 50
-104 60 -198 80 -87 18 -164 17 -251 -1z"/>
</g>
</svg>
